<svg width="11" height="16" viewBox="0 0 11 16" fill="none" xmlns="http://www.w3.org/2000/svg">
<path d="M0.607239 2.27692C0.607239 1.77097 0.776571 1.28574 1.07799 0.927982C1.3794 0.570221 1.7882 0.369232 2.21447 0.369232L8.64338 0.369232C9.06965 0.369232 9.47845 0.570221 9.77986 0.927982C10.0813 1.28574 10.2506 1.77097 10.2506 2.27692V15.1538C10.2506 15.2401 10.2308 15.3248 10.1935 15.3988C10.1561 15.4728 10.1025 15.5333 10.0385 15.5741C9.97438 15.6148 9.9022 15.6341 9.8296 15.63C9.75701 15.6259 9.68671 15.5984 9.6262 15.5506L5.42892 12.8656L1.23165 15.5506C1.17114 15.5984 1.10084 15.6259 1.02825 15.63C0.955648 15.6341 0.883468 15.6148 0.819393 15.5741C0.755317 15.5333 0.701747 15.4728 0.664387 15.3988C0.627027 15.3248 0.607276 15.2401 0.607239 15.1538V2.27692ZM2.21447 1.32308C2.00134 1.32308 1.79693 1.42357 1.64623 1.60245C1.49552 1.78133 1.41085 2.02395 1.41085 2.27692V14.263L5.20632 11.8955C5.27227 11.8434 5.34971 11.8156 5.42892 11.8156C5.50814 11.8156 5.58558 11.8434 5.65153 11.8955L9.447 14.263V2.27692C9.447 2.02395 9.36233 1.78133 9.21162 1.60245C9.06092 1.42357 8.85651 1.32308 8.64338 1.32308H2.21447Z" fill="#5C5776" fill-opacity="0.5"/>
</svg>
