<svg width="40" height="40" viewBox="0 0 40 40" fill="none" xmlns="http://www.w3.org/2000/svg">
<circle cx="20" cy="20" r="20" fill="#FFEEDA"/>
<path d="M19.9555 18.6889C21.1555 18.6889 22.0889 17.7111 22.0889 16.5111C22.0889 15.3111 21.1111 14.3778 19.9111 14.3778C18.7111 14.3778 17.7778 15.3556 17.7778 16.5111C17.7778 17.7111 18.7555 18.6889 19.9555 18.6889ZM19.9111 15.2667C19.9555 15.2667 19.9555 15.2667 19.9111 15.2667C20.6222 15.2667 21.2 15.8444 21.2 16.5556C21.2 17.2667 20.6222 17.8 19.9111 17.8C19.2 17.8 18.6667 17.2222 18.6667 16.5556C18.6667 15.8444 19.2444 15.2667 19.9111 15.2667Z" fill="#C28135"/>
<path d="M26.5333 18.4222C25.6889 17.6667 24.5778 17.2667 23.4222 17.3111H23.0667C22.9778 17.6667 22.8444 17.9778 22.6667 18.2444C22.9333 18.2 23.1556 18.2 23.4222 18.2C24.2667 18.1556 25.1111 18.4222 25.7778 18.9111V22.1111H26.6667V18.5556L26.5333 18.4222Z" fill="#C28135"/>
<path d="M22.4 14.4667C22.6222 13.9333 23.2444 13.6667 23.8222 13.8889C24.3555 14.1111 24.6222 14.7333 24.4 15.3111C24.2222 15.7111 23.8222 15.9778 23.4222 15.9778C23.3333 15.9778 23.2 15.9778 23.1111 15.9333C23.1555 16.1556 23.1555 16.3778 23.1555 16.5556V16.8222C23.2444 16.8222 23.3333 16.8667 23.4222 16.8667C24.5333 16.8667 25.4222 15.9778 25.4222 14.9111C25.4222 13.8 24.5333 12.9111 23.4667 12.9111C22.7555 12.9111 22.1333 13.2667 21.7778 13.8889C22 14.0222 22.2222 14.2 22.4 14.4667Z" fill="#C28135"/>
<path d="M17.3333 18.2889C17.1556 18.0222 17.0222 17.7111 16.9333 17.3556H16.5778C15.4222 17.3111 14.3111 17.7111 13.4667 18.4222L13.3333 18.5556V22.1111H14.2222V18.9111C14.9333 18.4222 15.7333 18.1556 16.5778 18.2C16.8444 18.2 17.1111 18.2444 17.3333 18.2889Z" fill="#C28135"/>
<path d="M16.5778 16.8222C16.6667 16.8222 16.7556 16.8222 16.8444 16.7778V16.5111C16.8444 16.2889 16.8444 16.0667 16.8889 15.8889C16.8 15.9333 16.6667 15.9333 16.5778 15.9333C16 15.9333 15.5111 15.4444 15.5111 14.8667C15.5111 14.2889 16 13.8 16.5778 13.8C17.0222 13.8 17.4222 14.0667 17.6 14.4667C17.7778 14.2444 18.0444 14.0222 18.2667 13.8444C17.6889 12.9111 16.4889 12.6 15.5556 13.1778C14.6222 13.7556 14.3111 14.9556 14.8889 15.8889C15.2444 16.4667 15.8667 16.8222 16.5778 16.8222Z" fill="#C28135"/>
<path d="M23.6 21.0889L23.5111 20.9556C22.6222 19.9778 21.3778 19.4 20.0444 19.4444C18.7111 19.4 17.4222 19.9778 16.5333 20.9556L16.4444 21.0889V24.4667C16.4444 24.8667 16.7556 25.2222 17.2 25.2222H22.8889C23.2889 25.2222 23.6444 24.8667 23.6444 24.4667V21.0889H23.6ZM22.7111 24.3333H17.3333V21.4C18.0444 20.6889 19.0222 20.3333 20.0444 20.3333C21.0222 20.2889 22 20.6889 22.7111 21.4V24.3333Z" fill="#C28135"/>
</svg>
