<svg width="40" height="40" viewBox="0 0 40 40" fill="none" xmlns="http://www.w3.org/2000/svg">
<circle cx="20" cy="20" r="20" fill="#FFEEDA"/>
<g clip-path="url(#clip0)">
<path d="M20.515 11.019C20.3436 11.0063 20.1718 11 20 11V10C20.1965 10.0001 20.393 10.0074 20.589 10.022L20.515 11.019ZM22.519 11.469C22.1984 11.3453 21.8692 11.2454 21.534 11.17L21.753 10.194C22.136 10.28 22.513 10.394 22.879 10.536L22.519 11.469ZM23.889 12.179C23.746 12.0836 23.5996 11.9936 23.45 11.909L23.943 11.039C24.2849 11.2327 24.6121 11.4513 24.922 11.693L24.307 12.482C24.1714 12.3762 24.032 12.2755 23.889 12.18V12.179ZM25.723 13.969C25.5252 13.688 25.3069 13.4219 25.07 13.173L25.794 12.483C26.064 12.768 26.314 13.073 26.541 13.393L25.723 13.969ZM26.467 15.321C26.4014 15.1625 26.33 15.0064 26.253 14.853L27.146 14.403C27.3226 14.7541 27.473 15.1177 27.596 15.491L26.646 15.804C26.5923 15.6409 26.5326 15.4798 26.467 15.321ZM26.997 17.828C26.9889 17.4843 26.9555 17.1417 26.897 16.803L27.882 16.633C27.949 17.019 27.988 17.411 27.998 17.803L26.998 17.828H26.997ZM26.866 19.366C26.899 19.196 26.926 19.027 26.947 18.856L27.94 18.979C27.892 19.3692 27.8151 19.7552 27.71 20.134L26.746 19.867C26.792 19.702 26.832 19.535 26.866 19.366ZM25.914 21.745C26.098 21.455 26.26 21.151 26.4 20.837L27.314 21.242C27.154 21.602 26.969 21.948 26.759 22.28L25.914 21.745ZM24.95 22.95C25.072 22.828 25.189 22.702 25.3 22.572L26.058 23.225C25.9296 23.3738 25.7959 23.5179 25.657 23.657L24.95 22.95Z" fill="#C28135"/>
<path d="M20 11C18.8489 11.0001 17.7155 11.284 16.7004 11.8267C15.6852 12.3694 14.8195 13.1541 14.1801 14.1112C13.5406 15.0684 13.147 16.1685 13.0342 17.3141C12.9214 18.4596 13.0928 19.6154 13.5334 20.6789C13.9739 21.7423 14.6699 22.6808 15.5597 23.4111C16.4495 24.1413 17.5057 24.6409 18.6347 24.8655C19.7637 25.0901 20.9307 25.0328 22.0323 24.6987C23.1338 24.3645 24.136 23.7639 24.95 22.95L25.657 23.657C24.7267 24.5878 23.5812 25.2747 22.322 25.657C21.0628 26.0393 19.7288 26.105 18.4381 25.8485C17.1474 25.5919 15.9399 25.021 14.9225 24.1862C13.9052 23.3515 13.1095 22.2787 12.6059 21.0629C12.1023 19.8471 11.9064 18.5259 12.0354 17.2163C12.1645 15.9067 12.6146 14.6491 13.3459 13.555C14.0771 12.4609 15.0669 11.5641 16.2276 10.944C17.3883 10.3239 18.684 9.99965 20 10V11Z" fill="#C28135"/>
<path d="M19.5 13C19.6326 13 19.7598 13.0527 19.8536 13.1464C19.9473 13.2402 20 13.3674 20 13.5V18.71L23.248 20.566C23.3598 20.6334 23.4408 20.7419 23.4736 20.8683C23.5065 20.9946 23.4886 21.1288 23.4238 21.2422C23.3591 21.3556 23.2525 21.4391 23.127 21.4749C23.0014 21.5108 22.8669 21.4961 22.752 21.434L19.252 19.434C19.1755 19.3903 19.1119 19.3271 19.0676 19.2509C19.0234 19.1747 19 19.0881 19 19V13.5C19 13.3674 19.0527 13.2402 19.1464 13.1464C19.2402 13.0527 19.3674 13 19.5 13Z" fill="#C28135"/>
</g>
<defs>
<clipPath id="clip0">
<rect width="16" height="16" fill="white" transform="translate(12 10)"/>
</clipPath>
</defs>
</svg>
